<?xml version="1.0" encoding="UTF-8" standalone="no"?>
<!-- Created with Inkscape (http://www.inkscape.org/) -->

<svg
   width="210mm"
   height="297mm"
   viewBox="0 0 210 297"
   version="1.1"
   id="svg5"
   xml:space="preserve"
   sodipodi:docname="interplanetaryMind.svg"
   inkscape:version="1.3.2 (091e20e, 2023-11-25, custom)"
   xmlns:inkscape="http://www.inkscape.org/namespaces/inkscape"
   xmlns:sodipodi="http://sodipodi.sourceforge.net/DTD/sodipodi-0.dtd"
   xmlns="http://www.w3.org/2000/svg"
   xmlns:svg="http://www.w3.org/2000/svg"><sodipodi:namedview
     id="namedview7"
     pagecolor="#ffffff"
     bordercolor="#000000"
     borderopacity="0.25"
     inkscape:showpageshadow="2"
     inkscape:pageopacity="0.0"
     inkscape:pagecheckerboard="0"
     inkscape:deskcolor="#d1d1d1"
     inkscape:document-units="mm"
     showgrid="false"
     showguides="false"
     inkscape:zoom="1"
     inkscape:cx="465"
     inkscape:cy="499.5"
     inkscape:window-width="1920"
     inkscape:window-height="1017"
     inkscape:window-x="1912"
     inkscape:window-y="-8"
     inkscape:window-maximized="1"
     inkscape:current-layer="g1565" /><defs
     id="defs2" /><g
     inkscape:label="Layer 1"
     inkscape:groupmode="layer"
     id="layer1"><g
       id="g1565"
       transform="translate(3.9651146)"><rect
         style="fill:#ffffff;fill-opacity:1;stroke-width:0.159077"
         id="rect1068-1"
         width="127.63083"
         height="162.8317"
         x="37.219471"
         y="25.804148" /><rect
         style="fill:#36afea;fill-opacity:1;stroke-width:0.0598503"
         id="rect1068"
         width="49.816875"
         height="59.053192"
         x="66.070717"
         y="52.816525" /><rect
         style="fill:#36afea;fill-opacity:1;stroke-width:0.0598503"
         id="rect1068-2"
         width="49.816875"
         height="59.053192"
         x="58.260159"
         y="71.867119" /><rect
         style="fill:#36afea;fill-opacity:1;stroke-width:0.0598503"
         id="rect1068-9"
         width="49.816875"
         height="59.053192"
         x="85.047783"
         y="78.073418" /><rect
         style="fill:#36afea;fill-opacity:1;stroke-width:0.0598503"
         id="rect1068-6"
         width="49.816875"
         height="59.053192"
         x="80.490807"
         y="37.713131" /><rect
         style="fill:#36afea;fill-opacity:1;stroke-width:0.0598503"
         id="rect1068-6-7"
         width="49.816875"
         height="59.053192"
         x="95.05381"
         y="53.111534" /><rect
         style="fill:#36afea;fill-opacity:1;stroke-width:0.0598503"
         id="rect1068-6-5"
         width="49.816875"
         height="59.053192"
         x="96.134697"
         y="52.186596" /><path
         id="path300"
         style="fill:#000000;stroke-width:0.106261"
         d="m 106.95163,29.4566 c -2.79229,9.04e-4 -4.08387,0.04682 -5.41931,0.191719 -6.242122,0.677252 -11.729458,2.305184 -19.228799,5.704562 -2.118648,0.960365 -3.501519,1.89954 -6.59753,4.480863 -1.142455,0.952531 -2.744579,2.281509 -3.559989,2.953308 -3.130264,2.578965 -8.019762,7.691757 -9.857796,10.307898 -0.513264,0.730546 -1.264435,1.782632 -1.669149,2.337842 -2.912571,3.995624 -6.879162,12.453003 -7.696688,16.410885 -0.09228,0.446772 -0.307184,1.252492 -0.478007,1.790588 -0.686916,2.163798 -1.005619,3.68881 -1.804024,8.629448 -0.817695,5.059997 -0.939868,5.943459 -1.711524,12.379089 -0.353882,2.951394 -0.738921,6.049578 -0.855245,6.884338 -0.340463,2.44329 -1.231321,6.79515 -1.738911,8.49353 -0.521479,1.74486 -3.043087,9.11685 -3.82664,11.18744 -1.017627,2.68914 -1.989258,5.49977 -2.24069,6.48229 -0.478445,1.86962 -0.280553,2.9176 0.654223,3.46542 1.170549,0.68599 2.281471,0.80654 7.586617,0.82424 4.569493,0.0152 4.722908,0.0319 4.83123,0.52141 0.02873,0.12981 0.315735,1.39618 0.637687,2.81378 0.839014,3.69434 1.685068,7.80595 2.183846,10.61228 0.422278,2.37591 0.947973,5.06201 1.785938,9.12502 0.229017,1.11043 0.500843,2.47072 0.60358,3.02307 0.485287,2.60918 1.535402,4.60842 3.098002,5.89732 0.845915,0.69775 1.372369,0.97092 2.164726,1.12293 0.8854,0.16985 4.033259,0.29657 9.081616,0.36587 7.964109,0.10923 12.775715,0.26358 13.751616,0.44028 2.186295,0.39584 4.767371,1.48589 6.933427,2.92798 1.020816,0.67961 1.640619,1.20364 2.799829,2.3673 1.711127,1.71774 2.616109,2.93462 3.607015,4.85242 1.45643,2.81878 2.07519,4.94221 2.50011,8.5788 0.11522,0.98615 0.23963,1.87198 0.27646,1.96836 0.0369,0.0957 0.0881,0.17415 0.11369,0.17415 0.0256,0 0.39115,-0.23254 0.81236,-0.51677 1.35617,-0.91512 2.96222,-1.87618 4.37802,-2.61999 0.75976,-0.39916 1.63229,-0.88405 1.9389,-1.07745 0.7307,-0.46092 5.59294,-2.41892 7.68274,-3.09387 7.92897,-2.56083 18.48643,-3.73924 26.34774,-2.94039 2.08165,0.21153 4.36297,0.59954 7.2006,1.22473 1.30155,0.28676 2.6405,0.55308 2.97553,0.59118 l 0.60926,0.0692 -0.58808,-0.62631 c -0.32352,-0.34459 -1.0625,-1.20038 -1.64227,-1.9017 -0.57977,-0.70132 -1.51422,-1.75588 -2.07636,-2.34301 -0.56214,-0.58713 -1.22052,-1.35918 -1.46296,-1.71617 -0.24243,-0.35701 -0.82926,-1.11674 -1.30431,-1.68827 -0.47505,-0.57152 -1.20272,-1.5446 -1.61696,-2.16214 -0.41425,-0.61753 -1.07819,-1.56101 -1.47536,-2.09651 -0.63736,-0.85939 -2.01744,-3.16622 -3.77186,-6.30505 -0.31035,-0.5552 -0.64375,-1.24877 -0.74104,-1.54099 -0.0973,-0.29222 -0.40652,-1.06895 -0.6873,-1.72599 -1.04007,-2.43386 -1.89489,-5.44436 -2.11718,-7.45743 -0.26274,-2.37924 -0.0475,-5.8462 0.54828,-8.82788 0.98945,-4.9518 3.47288,-10.45361 6.09059,-13.49478 0.32699,-0.37988 1.01199,-1.18985 1.52238,-1.79989 0.5104,-0.61004 1.46761,-1.72617 2.12701,-2.47996 0.65938,-0.75379 1.39862,-1.64146 1.64279,-1.97249 0.24417,-0.33101 0.66073,-0.84857 0.92604,-1.15031 0.26532,-0.30173 0.67367,-0.7952 0.90744,-1.09658 0.23378,-0.30138 0.72918,-0.93887 1.10071,-1.41696 1.2374,-1.5923 3.22367,-5.14662 4.67258,-8.36073 2.07764,-4.60886 3.42397,-8.827514 4.3062,-13.495305 0.50065,-2.648829 0.58614,-3.338831 0.69711,-5.615678 0.37206,-7.633743 -1.40746,-17.538478 -4.32893,-24.09517 -0.9037,-2.028199 -3.61621,-7.042686 -5.36867,-9.924458 -3.25633,-5.354795 -6.0415,-8.729861 -9.68623,-11.738819 -0.70133,-0.578991 -1.96842,-1.632658 -2.81585,-2.341459 -0.84743,-0.7088 -1.8918,-1.554672 -2.32078,-1.879989 -1.87528,-1.42215 -6.54956,-3.951531 -10.05831,-5.442561 -2.75374,-1.170203 -6.94151,-2.510025 -9.77614,-3.127458 -4.5722,-0.995926 -5.81582,-1.128563 -10.573,-1.127063 z m -1.88877,14.738118 c 0.29073,0 0.75303,0.449574 0.92914,0.903304 0.0681,0.175328 0.16132,0.610967 0.20722,0.9679 0.10492,0.816783 0.33029,1.293042 0.92398,1.953369 0.62625,0.696535 1.30472,1.190114 2.78432,2.026233 0.67859,0.383468 1.24869,0.773247 1.26659,0.866097 0.0243,0.126187 -0.19042,0.242233 -0.85008,0.45992 -0.86134,0.284252 -1.88147,0.757613 -2.2195,1.029395 -0.0927,0.07453 -0.30402,0.350407 -0.46922,0.613399 -0.16521,0.263 -0.43406,0.645523 -0.59738,0.850077 -0.16331,0.204554 -0.58561,1.017625 -0.93896,1.806608 -0.35335,0.788984 -0.73146,1.554039 -0.83974,1.700155 -0.39751,0.536384 -0.66484,0.364245 -0.81184,-0.522449 -0.23247,-1.402314 -0.95998,-2.813371 -1.9606,-3.802352 -0.7887,-0.779526 -1.56878,-1.250283 -2.685112,-1.621089 -1.238488,-0.411387 -1.207592,-0.523102 0.371552,-1.352372 1.47547,-0.774815 2.12501,-1.233156 2.77813,-1.959571 0.65243,-0.725666 1.06084,-1.471156 1.39216,-2.54093 0.40796,-1.317265 0.43959,-1.377694 0.71934,-1.377694 z M 76.276499,59.602047 c 0.362333,-0.01253 0.738185,0.03299 0.997356,0.141593 1.566289,0.65636 2.198972,3.042825 1.129646,4.260722 -0.175437,0.199807 -0.522901,0.462575 -0.772562,0.583427 -1.072589,0.519238 -2.623927,0.110575 -3.136243,-0.825789 -0.688584,-1.258529 -0.246578,-3.273477 0.866614,-3.952214 0.204396,-0.12464 0.552857,-0.195213 0.915189,-0.207739 z m 51.599431,11.999267 c 2.43047,-0.0041 4.21843,0.511261 4.75217,1.488282 0.20293,0.371546 0.16862,0.975917 -0.0842,1.484663 -0.28943,0.582381 -2.09712,2.387877 -2.92282,2.919202 -0.32614,0.209877 -0.89794,0.638314 -1.27073,0.95188 -0.37279,0.313567 -1.0409,0.809551 -1.48466,1.102258 -0.44375,0.292692 -1.00038,0.689508 -1.23662,0.8816 -0.23622,0.192091 -0.69144,0.514549 -1.01182,0.716752 -0.32039,0.202176 -1.199,0.757999 -1.95234,1.235067 -2.15431,1.364259 -3.49148,2.162505 -3.88607,2.319238 -0.20002,0.07945 -0.66699,0.329145 -1.03766,0.555522 -0.37068,0.226378 -1.39283,0.774816 -2.27169,1.21853 -0.87887,0.443714 -1.91779,0.994993 -2.30839,1.225248 -0.39061,0.230256 -0.97555,0.51715 -1.29966,0.637171 -0.32413,0.120023 -0.6978,0.299039 -0.83044,0.397908 -0.13269,0.09889 -1.08196,0.593721 -2.10944,1.099675 -1.02748,0.505967 -2.1347,1.06684 -2.46031,1.246435 -0.98061,0.540931 -5.04353,2.504888 -5.72833,2.768824 -0.35154,0.135494 -1.374343,0.572736 -2.272732,0.971517 -0.898389,0.398779 -1.92118,0.836074 -2.272729,0.972033 -0.78691,0.304483 -1.172969,0.472382 -2.662887,1.156519 -0.644489,0.295937 -1.347866,0.60498 -1.562695,0.68678 -3.630757,1.383466 -7.693331,2.561412 -9.587529,2.779672 -0.933329,0.1076 -2.312791,0.14088 -3.01842,0.0734 -1.298729,-0.12439 -2.340417,-0.507236 -2.627747,-0.965829 -0.07812,-0.124691 -0.269554,-0.367781 -0.425814,-0.540536 l -0.28422,-0.314192 0.0031,-0.63252 c 0.0048,-1.026265 0.297928,-1.795138 1.206128,-3.162597 0.490089,-0.737931 1.156421,-1.430733 2.69906,-2.807064 1.368808,-1.221262 2.140218,-1.807544 3.584277,-2.723348 2.846267,-1.805082 4.302386,-2.611529 5.194515,-2.87631 0.576979,-0.171247 0.703221,-0.1247 0.533301,0.19637 -0.16422,0.310294 -0.923757,1.291035 -1.353406,1.747697 -0.52953,0.562791 -1.352648,1.781257 -1.733228,2.566252 -0.530329,1.09382 -0.498627,1.918136 0.0987,2.567285 0.988119,1.07385 3.161294,1.409075 6.31486,0.973584 1.127419,-0.155704 3.719646,-0.723935 4.927865,-1.080038 1.025459,-0.302254 4.647598,-1.577625 5.583118,-1.965771 1.26893,-0.526489 4.09465,-1.870906 5.12631,-2.439128 0.55377,-0.305018 1.27276,-0.663806 1.59783,-0.797367 0.32509,-0.13359 0.76652,-0.375883 0.98134,-0.538469 0.21484,-0.1626 0.66223,-0.435782 0.99425,-0.607198 2.15943,-1.114878 4.56091,-2.935542 6.49418,-4.92373 1.52161,-1.564813 2.0906,-2.651639 2.0159,-3.850928 -0.0611,-0.981273 -0.63904,-1.604959 -1.85726,-2.004529 -1.38159,-0.453149 -3.1301,-0.343889 -4.84776,0.303341 -0.92506,0.348557 -0.91512,0.327747 -0.41755,0.871781 0.77006,0.841973 1.3083,1.51777 1.96422,2.466 1.01834,1.47208 1.15619,1.86727 0.79634,2.285132 -0.50799,0.589856 -3.12799,2.629599 -3.88245,3.022554 -0.20469,0.10661 -0.53336,0.310849 -0.73071,0.453719 -0.61519,0.445365 -3.83894,2.142471 -5.20898,2.742468 -0.45324,0.198481 -1.31482,0.583937 -1.91461,0.856279 -0.59981,0.272355 -1.27093,0.553268 -1.49138,0.624768 -0.22047,0.07145 -1.19959,0.442844 -2.1761,0.824756 -1.897961,0.74233 -2.226395,0.849307 -4.971272,1.618506 -3.908106,1.095175 -3.794555,1.081412 -4.098975,0.478523 -0.543669,-1.076655 -0.771786,-2.027457 -0.915706,-3.816304 -0.0987,-1.226424 -0.04218,-3.487784 0.107487,-4.30413 0.22131,-1.206946 1.156384,-3.458778 1.939933,-4.67155 0.34507,-0.534103 1.61057,-2.003986 2.0283,-2.355928 0.23546,-0.198382 0.679107,-0.579309 0.985986,-0.84646 1.573939,-1.37021 2.678892,-1.954124 4.589387,-2.424142 1.52635,-0.375588 3.40906,-0.523434 4.98626,-0.391707 2.27189,0.189779 4.07446,0.745002 5.77277,1.777669 0.80314,0.488353 0.89305,0.471973 3.11506,-0.560172 2.96188,-1.37581 6.21447,-2.505556 8.88007,-3.084566 1.78902,-0.38861 3.47838,-0.577892 4.93665,-0.580327 z m -10.53424,15.356169 c 0.0383,-0.0088 0.0633,-0.0062 0.0765,0.0067 0.26246,0.256658 -0.19475,3.870466 -0.64492,5.096846 -0.0981,0.267151 -0.22645,0.655489 -0.28525,0.862997 -0.14988,0.529252 -0.4285,1.042045 -1.08211,1.992643 -1.47668,2.147687 -2.74643,3.372983 -4.60023,4.439006 -1.53559,0.883027 -3.47412,1.575847 -4.92373,1.759067 -0.29295,0.0371 -1.20391,0.0656 -2.02417,0.0646 -1.30998,-0.002 -1.57815,-0.0227 -2.20193,-0.16588 -2.407743,-0.5524 -5.615706,-2.085548 -6.039426,-2.886126 -0.15392,-0.290845 -0.08897,-0.348578 0.734839,-0.657841 0.378739,-0.142179 1.471306,-0.607383 2.428275,-1.034046 0.956979,-0.426677 1.884052,-0.834518 2.059822,-0.905888 0.60713,-0.246658 5.0093,-2.368986 5.82342,-2.80758 0.44919,-0.241991 1.39187,-0.73545 2.09496,-1.096574 0.70308,-0.361137 1.60699,-0.843459 2.00815,-1.071769 0.40116,-0.228296 0.881,-0.471566 1.0666,-0.540536 0.18562,-0.06891 0.84815,-0.431067 1.47226,-0.804602 0.6241,-0.373519 1.45424,-0.838518 1.84485,-1.033528 0.39061,-0.195011 1.04417,-0.563904 1.45211,-0.819589 0.39068,-0.244809 0.62498,-0.371521 0.74,-0.397908 z m 24.43417,5.200199 c 0.68754,0.05764 1.36322,0.302732 1.81953,0.717786 1.05351,0.958278 0.56856,3.070453 -0.87385,3.807003 -0.52715,0.269179 -1.66347,0.354541 -2.16628,0.16278 -0.5293,-0.201856 -1.06331,-0.675662 -1.31981,-1.170987 -0.51616,-0.996727 -0.19148,-2.554333 0.64802,-3.109888 0.50535,-0.33443 1.20485,-0.464336 1.89239,-0.406694 z M 76.218619,117.49742 c 1.174815,-0.12355 2.406859,0.41702 2.995683,1.53841 0.268737,0.51173 0.303216,1.74138 0.06718,2.39778 -0.248999,0.69245 -0.860611,1.39828 -1.449524,1.67277 -0.562471,0.26215 -1.062571,0.32884 -1.651578,0.22014 -1.47956,-0.27303 -2.563736,-1.49539 -2.568836,-2.89698 -0.0033,-0.87812 0.179539,-1.3897 0.705383,-1.97456 0.5126,-0.57013 1.196804,-0.88343 1.901693,-0.95756 z m 44.461891,3.41665 c 0.10838,-0.0107 0.18992,0.0956 0.23202,0.31987 0.18285,0.97469 1.58168,3.30047 2.47686,4.11862 0.68854,0.62927 1.75009,1.40199 2.39416,1.74252 0.57512,0.30407 0.64907,0.55153 0.16589,0.55553 -0.47346,0.004 -1.99042,0.67997 -2.89905,1.29191 -0.88622,0.59683 -1.29488,1.16647 -2.03502,2.83755 -0.32915,0.74314 -0.58302,1.18031 -0.69815,1.20251 -0.13762,0.0265 -0.34996,-0.3039 -0.8878,-1.38028 -0.38886,-0.77821 -0.91559,-1.70852 -1.17047,-2.06757 -0.42338,-0.59644 -0.55321,-0.69599 -1.50223,-1.15032 -1.19071,-0.57001 -1.62316,-0.92589 -1.62316,-1.33532 0,-0.3504 0.14092,-0.47593 1.29088,-1.15187 0.50536,-0.29702 1.06594,-0.664 1.24591,-0.81545 0.27082,-0.22787 1.76972,-2.39528 2.61845,-3.78633 0.14832,-0.24311 0.28332,-0.37064 0.39171,-0.38137 z"
         sodipodi:nodetypes="cssssssssssssssssssssssscssssscssssssssccsssssssssssssssssssssssssssscsscssssssssssssssssssscsssscsssssssssssssscsscscccssccsssssssssssssssscssscsssssccssccsssccssssscscsscccssscssscsscssssssssscssscssscssssssssssssss" /><path
         style="fill:#36afea;fill-opacity:1;stroke-width:0.0972188"
         d="m 99.248159,188.45096 c -0.514443,-0.3654 -0.58096,-0.58126 -0.651438,-2.114 -0.200912,-4.36946 -1.362467,-8.23206 -3.123803,-10.38778 -0.810247,-0.99167 -2.532567,-2.77897 -3.219532,-3.34099 -2.140922,-1.75156 -4.693345,-2.52735 -9.221013,-2.80266 -0.908995,-0.0553 -4.802608,-0.14154 -8.652472,-0.19173 -7.152572,-0.0932 -8.320477,-0.15074 -10.002197,-0.49263 -1.704609,-0.34654 -2.395025,-0.72092 -3.9487,-2.14119 -0.454498,-0.41547 -1.014307,-0.89106 -1.24402,-1.05687 -0.808944,-0.58389 -2.122959,-2.96167 -2.835001,-5.13008 -0.469468,-1.42969 -0.902467,-3.54205 -1.609267,-7.85072 -0.298226,-1.818 -0.60411,-3.54606 -0.67974,-3.84015 -0.169085,-0.65747 -1.051293,-5.5353 -1.652807,-9.13856 -0.24547,-1.47044 -0.490057,-2.81163 -0.543527,-2.98044 l -0.09722,-0.30691 -0.991939,-0.0564 c -0.545564,-0.031 -2.020025,-0.1024 -3.276578,-0.15866 -1.256553,-0.0563 -2.678898,-0.16462 -3.160767,-0.24078 -5.373697,-0.84933 -7.789208,-3.97801 -6.604933,-8.55501 0.305214,-1.1796 1.37646,-4.30346 3.41721,-9.96493 2.095581,-5.81358 2.932055,-8.30985 3.427974,-10.23003 0.817192,-3.16414 1.348687,-6.4316 1.606373,-9.875466 0.502328,-6.713397 2.724461,-21.562584 3.807239,-25.441507 0.385082,-1.379506 1.652887,-5.294818 2.22339,-6.866406 0.531797,-1.464957 2.203472,-5.138649 3.091009,-6.792835 0.573286,-1.068485 2.33835,-4.044572 3.113568,-5.249815 0.518377,-0.805924 1.840311,-2.625642 2.959566,-4.074006 1.708661,-2.211082 5.105587,-5.898762 7.06943,-7.674525 0.74826,-0.676599 2.044202,-1.865194 2.879874,-2.641324 2.272819,-2.110883 3.821678,-3.171019 8.592535,-5.881267 2.858059,-1.623618 3.802437,-2.08189 6.270612,-3.042901 0.82879,-0.322701 1.856879,-0.740611 2.284642,-0.928693 2.37209,-1.042979 9.76442,-2.777432 12.687053,-2.976746 1.75621,-0.11977 8.0944,-0.122402 10.49963,-0.0044 2.09613,0.102871 3.13828,0.245234 6.12478,0.836678 3.93907,0.78009 5.96555,1.377421 10.01354,2.951611 3.68216,1.431928 8.40317,4.089824 11.81208,6.650116 2.75821,2.071569 4.04049,3.213793 6.53815,5.823972 4.31726,4.511757 6.23464,7.054936 8.48406,11.253104 0.38678,0.72185 1.36144,2.537411 2.16594,4.03458 1.96015,3.647881 2.37838,4.507332 3.02772,6.222003 0.30374,0.802055 0.87485,2.267629 1.26913,3.25683 1.01574,2.548392 1.41495,3.959988 2.03457,7.194191 0.64755,3.379906 1.10943,7.194848 1.32421,10.937114 0.12249,2.134439 0.0798,3.390747 -0.20439,6.01607 -0.67792,6.26216 -1.82917,11.507412 -3.39526,15.469292 -0.25364,0.64164 -0.55798,1.47038 -0.67633,1.84164 -0.88204,2.76706 -4.9076,9.84292 -7.49753,13.17866 -0.74632,0.96122 -3.60618,4.39981 -5.82169,6.99975 -2.03994,2.39393 -3.2281,4.31022 -4.21948,6.80532 -1.30133,3.27515 -1.89671,6.87369 -1.78432,10.78448 0.083,2.88636 0.52126,5.48081 1.31508,7.78431 0.55329,1.60553 2.05768,4.63649 3.44784,6.94649 0.78189,1.29928 3.12225,4.63447 4.09644,5.83778 0.43289,0.5347 0.98997,1.25655 1.23793,1.60411 0.24798,0.34756 0.70093,0.91629 1.00658,1.26385 0.30564,0.34755 0.94903,1.11315 1.42973,1.70132 0.48071,0.58818 1.41421,1.66245 2.07445,2.38727 2.48875,2.7322 3.08797,3.5716 2.87825,4.03188 -0.21356,0.46871 -0.61239,0.57278 -2.21068,0.57686 -1.44184,0.004 -1.51233,0.0722 -2.0797,-0.217 -0.48655,-0.24807 -0.73288,-0.59434 -1.78454,-1.82312 -0.68537,-0.8008 -1.76559,-2.04661 -2.40049,-2.76846 -1.34895,-1.53372 -3.37103,-4.14597 -4.44,-5.73591 -0.41342,-0.61491 -1.04276,-1.51175 -1.39851,-1.99299 -0.71341,-0.96503 -3.37585,-5.59348 -4.05444,-7.04836 -1.54141,-3.30469 -2.50191,-6.33029 -2.90111,-9.13857 -0.19903,-1.40011 -0.31706,-4.71179 -0.22869,-6.41644 0.11357,-2.19067 0.73303,-4.94802 1.84555,-8.21499 1.1455,-3.36377 3.32223,-6.79683 7.51313,-11.8494 3.93254,-4.74109 4.37775,-5.34215 7.10143,-9.58734 1.03759,-1.61723 3.40291,-7.02827 4.48343,-10.25658 0.65447,-1.9554 1.45624,-4.705243 1.6986,-5.825748 0.29265,-1.352984 0.85195,-4.847759 0.98916,-6.18078 0.0633,-0.614909 0.1158,-2.496093 0.11669,-4.180409 0.003,-5.707001 -0.36897,-8.932315 -1.59773,-13.853678 -1.49013,-5.968211 -2.80674,-9.175381 -6.62514,-16.13832 -2.70916,-4.940222 -4.03406,-6.843073 -7.03984,-10.110755 -2.41868,-2.629416 -6.48209,-6.252587 -8.8292,-7.872601 -0.37429,-0.258343 -0.69511,-0.50669 -0.71293,-0.55188 -0.0178,-0.04519 -0.0744,-0.08216 -0.1257,-0.08216 -0.0513,0 -0.32109,-0.168801 -0.59952,-0.375115 -0.27842,-0.206312 -0.65934,-0.457865 -0.84649,-0.559008 -0.18715,-0.101141 -0.49742,-0.319721 -0.68949,-0.485734 -0.59459,-0.513918 -5.25021,-2.771333 -7.18523,-3.483968 -0.40103,-0.147693 -0.81116,-0.311613 -0.91141,-0.364271 -0.88205,-0.463321 -5.06636,-1.865436 -7.06053,-2.365909 -4.61028,-1.157028 -10.32755,-1.547591 -16.13832,-1.102455 -2.467436,0.189018 -6.660788,0.985124 -9.430227,1.790323 -2.10284,0.611389 -5.596744,1.940497 -8.360816,3.180517 -0.82879,0.371811 -1.757496,0.780544 -2.06379,0.908293 -0.702954,0.293191 -2.826164,1.635608 -3.720728,2.35246 -1.301074,1.042605 -6.524048,5.640395 -8.214989,7.231665 -1.674407,1.575708 -3.51436,3.480639 -4.796903,4.966301 -1.406787,1.629588 -4.117179,5.449374 -5.223671,7.361785 -0.729388,1.26064 -2.66201,5.006589 -2.934211,5.687299 -0.08553,0.213882 -0.371211,0.848234 -0.634852,1.409673 -1.076298,2.292016 -2.365682,5.774855 -2.501403,6.756706 -0.03696,0.267352 -0.236483,1.120447 -0.443394,1.895767 -0.20691,0.775319 -0.392456,1.519043 -0.412326,1.652719 -0.01987,0.133676 -0.08415,0.359457 -0.142847,0.501738 -0.138621,0.336014 -0.853105,4.014594 -1.035507,5.33139 -0.07777,0.561438 -0.317462,2.114509 -0.532646,3.451267 -0.431488,2.680456 -0.969386,6.841368 -1.520714,11.763474 -0.07786,0.695115 -0.205974,1.745078 -0.284694,2.333251 -0.07872,0.588174 -0.21162,1.660013 -0.295331,2.381863 -0.279393,2.40927 -0.821699,5.2704 -1.57551,8.31221 -0.255153,1.0296 -2.679297,8.34454 -4.639381,13.9995 -1.553966,4.48329 -1.875636,5.91424 -1.61307,7.17574 0.164704,0.79132 0.523294,1.17373 1.350006,1.43968 0.611486,0.1967 0.943132,0.0911 5.582379,0.16074 2.700252,0.0405 5.051958,0.22725 5.257443,0.26683 0.486998,0.0939 0.684121,0.42013 0.839109,1.38888 0.06585,0.41157 0.174345,0.88027 0.241113,1.04156 0.06677,0.1613 0.153059,0.51129 0.191758,0.77776 0.0387,0.26646 0.246724,1.29382 0.462277,2.28302 0.215552,0.9892 0.432822,2.01729 0.48282,2.28464 0.05,0.26736 0.19672,0.98921 0.326048,1.60411 0.319551,1.51934 1.01672,5.25057 1.126235,6.02757 0.142239,1.00918 0.614719,3.49986 0.968224,5.10399 0.05892,0.26735 0.139791,0.68296 0.17972,0.92358 0.03993,0.24061 0.147322,0.74372 0.238647,1.11801 0.09133,0.37429 0.361421,1.67162 0.600215,2.88295 0.749682,3.80292 1.331666,5.03943 3.083621,6.55161 0.726446,0.62702 1.431098,0.97984 2.213235,1.10817 0.876658,0.14382 4.599084,0.0321 11.281906,0.15226 9.227409,0.16595 10.817483,0.40225 12.652093,1.04165 1.868428,0.69022 3.781498,1.75842 5.299629,2.80897 1.068963,0.6903 3.03699,2.69594 4.073781,4.08014 0.8869,1.18408 1.928121,2.96472 2.280211,3.73634 0.62576,1.37139 1.32901,3.74462 1.68843,5.69788 0.18507,1.00576 0.57162,3.52822 0.65342,3.89335 0.0417,0.186 -0.30206,0.19978 -0.91406,0.69299 -0.81147,0.65396 -1.94924,1.17958 -2.262411,1.27241 -0.122937,0.0364 -0.311556,-0.0235 -0.503769,-0.16 z"
         id="path1340"
         sodipodi:nodetypes="csssscsssssssscccsssssssssssssssscsssssssssscscssscssssssssccsssssssssssssssssssssssssssssssssssssssssssssssssccssssssssssssssccsssssscc" /></g></g></svg>
